<svg xmlns="http://www.w3.org/2000/svg" version="1.1" xmlns:xlink="http://www.w3.org/1999/xlink" width="512" height="512" x="0" y="0" viewBox="0 0 512 512" style="enable-background:new 0 0 512 512" xml:space="preserve" class=""><g><path d="M256 341c69.596 0 134.374-39.741 166-101.536V156c0-3.979 1.58-7.794 4.394-10.606L490.787 81H21.213l64.394 64.394A14.995 14.995 0 0 1 90 156v83.464C121.626 301.259 186.404 341 256 341zm0-30c-8.284 0-15-6.716-15-15s6.716-15 15-15 15 6.716 15 15-6.716 15-15 15zm60-16.077c-8.284 0-15-6.716-15-15s6.716-15 15-15 15 6.716 15 15-6.716 15-15 15zM376 161c8.284 0 15 6.716 15 15s-6.716 15-15 15-15-6.716-15-15 6.716-15 15-15zm-16.077 60c8.284 0 15 6.716 15 15s-6.716 15-15 15-15-6.716-15-15 6.716-15 15-15zM196 141h120c8.284 0 15 6.716 15 15s-6.716 15-15 15H196c-8.284 0-15-6.716-15-15s6.716-15 15-15zm0 123.923c8.284 0 15 6.716 15 15s-6.716 15-15 15-15-6.716-15-15 6.716-15 15-15zM167.077 236c0 8.284-6.716 15-15 15s-15-6.716-15-15 6.716-15 15-15 15 6.716 15 15zM136 161c8.284 0 15 6.716 15 15s-6.716 15-15 15-15-6.716-15-15 6.716-15 15-15z" fill="#f1f1f1" opacity="1" data-original="#000000" class=""></path><path d="M452 162.213v80.791a15.01 15.01 0 0 1-1.522 6.584c-17.776 36.39-45.336 66.984-79.7 88.478C336.328 359.611 296.639 371 256 371s-80.328-11.389-114.777-32.936c-34.364-21.492-61.925-52.088-79.7-88.477a14.996 14.996 0 0 1-1.522-6.584v-80.791l-60-60V256a15 15 0 0 0 1.258 6.013l1.46 3.337C46.743 365.979 146.162 431 256 431s209.257-65.021 253.282-165.65l1.46-3.337A14.993 14.993 0 0 0 512 256V102.213z" fill="#f1f1f1" opacity="1" data-original="#000000" class=""></path></g></svg>