<svg xmlns="http://www.w3.org/2000/svg" version="1.1" xmlns:xlink="http://www.w3.org/1999/xlink" width="512" height="512" x="0" y="0" viewBox="0 0 64 64" style="enable-background:new 0 0 512 512" xml:space="preserve" class=""><g><path d="M61.4 45.38 46.354 4.034A5.757 5.757 0 0 0 38.984.6l-11.41 4.15H36A9.26 9.26 0 0 1 45.25 14v43.378l12.716-4.628a5.756 5.756 0 0 0 3.434-7.37zM28.813 38.132a3.427 3.427 0 0 0 0-4.843L22 26.475l-6.813 6.813a3.425 3.425 0 1 0 4.844 4.844l.732-.732a1.749 1.749 0 0 1 2.475 0l.732.732a3.429 3.429 0 0 0 4.843 0z" fill="#f1f1f1" opacity="1" data-original="#000000" class=""></path><path d="M36 8.25H8A5.756 5.756 0 0 0 2.25 14v44A5.756 5.756 0 0 0 8 63.75h28A5.756 5.756 0 0 0 41.75 58V14A5.756 5.756 0 0 0 36 8.25zM9.25 20a1.749 1.749 0 0 1-1.75-1.75v-3a1.75 1.75 0 0 1 3.5 0v3A1.749 1.749 0 0 1 9.25 20zM26 46.25a1.75 1.75 0 0 1 0 3.5h-8a1.75 1.75 0 0 1 0-3.5h2.25v-4.138a6.925 6.925 0 0 1-7.538-11.3l8.051-8.05a1.748 1.748 0 0 1 2.474 0l8.051 8.051a6.924 6.924 0 0 1-7.538 11.3v4.137zm10.5 10.5a1.75 1.75 0 0 1-3.5 0v-3a1.75 1.75 0 0 1 3.5 0z" fill="#f1f1f1" opacity="1" data-original="#000000" class=""></path></g></svg>