<svg xmlns="http://www.w3.org/2000/svg" version="1.1" xmlns:xlink="http://www.w3.org/1999/xlink" width="512" height="512" x="0" y="0" viewBox="0 0 64 64" style="enable-background:new 0 0 512 512" xml:space="preserve"><g><circle cx="57" cy="48.5" r="1" fill="#f1f1f1" opacity="1" data-original="#000000"></circle><circle cx="48" cy="9" r="1" fill="#f1f1f1" opacity="1" data-original="#000000"></circle><circle cx="12" cy="9" r="1" fill="#f1f1f1" opacity="1" data-original="#000000"></circle><circle cx="39" cy="60" r="1" fill="#f1f1f1" opacity="1" data-original="#000000"></circle><circle cx="5" cy="24" r="2" fill="#f1f1f1" opacity="1" data-original="#000000"></circle><path d="M53.213 21.1a.997.997 0 0 0-.707.294.998.998 0 0 0 0 1.414 1.022 1.022 0 0 0 1.413 0 1 1 0 0 0-.706-1.707zM44.224 21.191l-4.446-1.212-2.828 2.828 2.829 2.829zM39.838 31.352a10.236 10.236 0 0 0-2.181 6.305 10.236 10.236 0 0 0 6.305-2.182zM49.678 35.535l2.828 2.829 2.828-2.829-1.212-4.444z" fill="#f1f1f1" opacity="1" data-original="#000000"></path><path d="m48.482 19.76-8.704 8.704 7.071 7.071 8.704-8.703a16.07 16.07 0 0 0 4.731-11.803 16.07 16.07 0 0 0-11.802 4.732zm6.852 4.462a3 3 0 1 1-4.242-4.242v-.001a3.074 3.074 0 0 1 4.243.001 3 3 0 0 1-.001 4.242z" fill="#f1f1f1" opacity="1" data-original="#000000"></path><path d="M35.657 37.657a12.295 12.295 0 0 1 2.606-7.537l.15-.193-.756-.756a1 1 0 0 1 0-1.414l.707-.707-2.829-2.829-.707-.707a1 1 0 0 1 0-1.414l.707-.707 2.829-2.829.41-.41a1 1 0 0 1 .97-.257l.56.152 4.446 1.213 1.102.3.256-.257A18.99 18.99 0 1 0 22.58 48.5a74.567 74.567 0 0 0 13.077-10.29zM48.263 36.95l-.707.707a1 1 0 0 1-1.414 0l-.756-.756-.193.15a12.294 12.294 0 0 1-7.536 2.606h-.615a81.06 81.06 0 0 1-12.349 9.88A18.976 18.976 0 0 0 49.83 38.516z" fill="#f1f1f1" opacity="1" data-original="#000000"></path><path d="M21.515 49.126c-5.014 2.784-7.733 2.84-8.607 1.966-.841-.842-.813-3.288 1.475-7.693a20.901 20.901 0 0 1-1.162-2.054c-2.22 3.95-4.094 8.794-1.727 11.16a4.076 4.076 0 0 0 3.004 1.085c2.642 0 6.261-1.564 10.195-4.052a18.907 18.907 0 0 1-2.113-1.039c-.356.212-.717.433-1.065.627z" fill="#f1f1f1" opacity="1" data-original="#000000"></path></g></svg>