<svg xmlns="http://www.w3.org/2000/svg" version="1.1" xmlns:xlink="http://www.w3.org/1999/xlink" width="512" height="512" x="0" y="0" viewBox="0 0 512 512" style="enable-background:new 0 0 512 512" xml:space="preserve"><g><path d="M458.667 234.667V448a10.42 10.42 0 0 1-6.614 9.812 9.231 9.231 0 0 1-4.053.855 10.838 10.838 0 0 1-7.68-3.2L401.707 416H213.333a74.749 74.749 0 0 1-74.666-74.667h160a106.7 106.7 0 0 0 106.666-106.666V163.2a74.824 74.824 0 0 1 53.334 71.467zm-85.334 0V128a74.749 74.749 0 0 0-74.666-74.667H128A74.75 74.75 0 0 0 53.333 128v213.333a10.422 10.422 0 0 0 6.614 9.813A9.244 9.244 0 0 0 64 352a10.838 10.838 0 0 0 7.68-3.2l38.613-39.469h188.374a74.749 74.749 0 0 0 74.666-74.664z" data-name="comments-Filled" fill="#ffffff" opacity="1" data-original="#000000"></path></g></svg>