<svg xmlns="http://www.w3.org/2000/svg" version="1.1" xmlns:xlink="http://www.w3.org/1999/xlink" width="512" height="512" x="0" y="0" viewBox="0 0 52 52" style="enable-background:new 0 0 512 512" xml:space="preserve"><g><path d="M44.47 18.725H24.45c-3.05 0-5.53 2.49-5.53 5.54v20.01c0 3.05 2.48 5.54 5.53 5.54h20.02c3.05 0 5.53-2.49 5.53-5.54v-20.01c0-3.05-2.48-5.54-5.53-5.54zm-15.9 13.28c-2.01 0-3.64-1.63-3.64-3.63a3.64 3.64 0 0 1 3.64-3.64c2 0 3.63 1.63 3.63 3.64 0 2-1.63 3.63-3.63 3.63zm11.78 11.79c-2 0-3.63-1.63-3.63-3.63 0-2.01 1.63-3.64 3.63-3.64 2.01 0 3.63 1.63 3.63 3.64 0 2-1.62 3.63-3.63 3.63z" fill="#f1f1f1" opacity="1" data-original="#000000"></path><path d="M24.45 16.725h8.63v-9.01c0-3.05-2.48-5.53-5.53-5.53H7.53C4.48 2.185 2 4.665 2 7.715v20.02c0 3.05 2.48 5.53 5.53 5.53h9.39v-9c0-4.16 3.38-7.54 7.53-7.54zm-1.01-8.53a3.63 3.63 0 1 1 0 7.26c-2.01 0-3.64-1.62-3.64-3.63 0-2 1.63-3.63 3.64-3.63zm-11.79 19.05c-2.01 0-3.64-1.62-3.64-3.63s1.63-3.63 3.64-3.63a3.63 3.63 0 1 1 0 7.26zm0-11.79c-2.01 0-3.64-1.62-3.64-3.63 0-2 1.63-3.63 3.64-3.63a3.63 3.63 0 1 1 0 7.26z" fill="#f1f1f1" opacity="1" data-original="#000000"></path></g></svg>