<svg xmlns="http://www.w3.org/2000/svg" version="1.1" xmlns:xlink="http://www.w3.org/1999/xlink" width="512" height="512" x="0" y="0" viewBox="0 0 512 512" style="enable-background:new 0 0 512 512" xml:space="preserve" class=""><g><path d="M241 150h30v30h-30zM241 210h30v30h-30zM241 270h30v30h-30zM344.685 75c0-47.018-22.07-67.557-25.697-75L256 55.082 193.012 0c-3.944 8.095-25.697 27.424-25.697 75 0 47.018 22.07 67.555 25.697 75L256 94.918 318.988 150c3.944-8.095 25.697-27.426 25.697-75zM0 120l256 392-109.307-392zM256 512l256-392H365.307z" fill="#f1f1f1" opacity="1" data-original="#000000" class=""></path></g></svg>