<svg xmlns="http://www.w3.org/2000/svg" version="1.1" xmlns:xlink="http://www.w3.org/1999/xlink" width="512" height="512" x="0" y="0" viewBox="0 0 48 48" style="enable-background:new 0 0 512 512" xml:space="preserve" class=""><g><path d="M45.817 10.376a8.244 8.244 0 0 0-10.459-4.914A8.124 8.124 0 0 0 31.724 8h-5.43a8.133 8.133 0 0 0-3.634-2.538 8.242 8.242 0 0 0-10.46 4.914 38.392 38.392 0 0 0-1.348 4.667 10.285 10.285 0 0 1 2.466.531A10.175 10.175 0 0 1 17.179 18h3.659A10.251 10.251 0 0 1 37.7 21.7a39.868 39.868 0 0 1 2 8.1 5.243 5.243 0 0 0 4.634.988 4.6 4.6 0 0 0 2.576-2.547c1.79-3.764 1.342-11.109-1.093-17.865zM22.009 15h-1.5v1.5a1 1 0 1 1-2 0V15h-1.5a1 1 0 0 1 0-2h1.5v-1.5a1 1 0 1 1 2 0V13h1.5a1 1 0 0 1 0 2zm14 0a1 1 0 1 1 1-1 1 1 0 0 1-1 1zm2.5 2.5a1 1 0 1 1 1-1 1 1 0 0 1-1 1zm0-5a1 1 0 1 1 1-1 1 1 0 0 1-1 1zm2.5 2.5a1 1 0 1 1 1-1 1 1 0 0 1-1 1z" fill="#f1f1f1" opacity="1" data-original="#000000" class=""></path><path d="M35.8 22.378a8.243 8.243 0 0 0-10.46-4.913A8.122 8.122 0 0 0 21.706 20h-5.43a8.131 8.131 0 0 0-3.634-2.535 8.243 8.243 0 0 0-10.459 4.913C-.252 29.134-.7 36.48 1.093 40.242a4.6 4.6 0 0 0 2.576 2.548 3.807 3.807 0 0 0 1.262.21c2.618 0 5.739-2.5 8.646-7h10.828c3.393 5.245 7.075 7.775 9.908 6.79a4.6 4.6 0 0 0 2.576-2.548c1.793-3.762 1.345-11.108-1.089-17.864zM11.991 27h-1.5v1.5a1 1 0 0 1-2 0V27h-1.5a1 1 0 0 1 0-2h1.5v-1.5a1 1 0 0 1 2 0V25h1.5a1 1 0 0 1 0 2zm8 5h-2a1 1 0 0 1 0-2h2a1 1 0 0 1 0 2zm6-5a1 1 0 1 1 1-1 1 1 0 0 1-1 1zm2.5 2.5a1 1 0 1 1 1-1 1 1 0 0 1-1 1zm0-5a1 1 0 1 1 1-1 1 1 0 0 1-1 1zm2.5 2.5a1 1 0 1 1 1-1 1 1 0 0 1-1 1z" fill="#f1f1f1" opacity="1" data-original="#000000" class=""></path></g></svg>