<svg xmlns="http://www.w3.org/2000/svg" version="1.1" xmlns:xlink="http://www.w3.org/1999/xlink" width="512" height="512" x="0" y="0" viewBox="0 0 32 32" style="enable-background:new 0 0 512 512" xml:space="preserve" fill-rule="evenodd" class=""><g><path d="M19.882 11.29c-1.124-2.8-2.018-6.51-2.503-8.731l-.002-.012a1.996 1.996 0 0 0-3.491-.813c-1.657 2.008-4.497 5.677-6.505 9.491C5.983 13.88 5 16.612 5 18.938c0 6.576 4.953 11.875 11 11.875s11-5.299 11-11.875v-1.036c0-2.439-1.594-6.855-2.881-9.958a1.992 1.992 0 0 0-3.811.354l-.009.053c-.129.967-.272 2.006-.417 2.939zM16.8 17.4a1 1 0 0 0-1.786.769c.301 1.751-.742 2.839-1.558 3.833C12.639 22.997 12 23.949 12 25c0 2.208 1.792 4 4 4s4-1.792 4-4c0-2.274-1.576-5.434-3.2-7.6z" fill="#f1f1f1" opacity="1" data-original="#000000" class=""></path></g></svg>