<svg xmlns="http://www.w3.org/2000/svg" version="1.1" xmlns:xlink="http://www.w3.org/1999/xlink" width="512" height="512" x="0" y="0" viewBox="0 0 512 512" style="enable-background:new 0 0 512 512" xml:space="preserve" class=""><g><path d="m75.291 271.69-75.173.285c2.151 35.177 11.372 69.001 26.999 99.811l65.098-37.877a180.003 180.003 0 0 1-16.924-62.219zM256.02 104.612c-83.465 0-151.369 67.904-151.369 151.369S172.555 407.35 256.02 407.35s151.369-67.904 151.369-151.369-67.905-151.369-151.369-151.369zm70.511 192.311c-9.534 15.571-24.363 24.218-41.754 24.348a52.61 52.61 0 0 1-13.732-1.714v17.553h-30.048v-17.558a52.964 52.964 0 0 1-13.341 1.72l-.39-.001c-17.393-.129-32.222-8.776-41.755-24.347-9.694-15.834-10.004-35.302-.831-52.078 6.533-11.946 16.434-21.261 25.168-29.48a573.412 573.412 0 0 0 4.252-4.026c5.388-5.173 10.795-10.118 16.026-14.9 5.097-4.659 10.367-9.478 15.49-14.397l10.407-9.992 10.407 9.992c5.122 4.92 10.393 9.737 15.49 14.397 5.23 4.782 10.638 9.726 16.026 14.9 1.39 1.335 2.815 2.675 4.252 4.027 8.735 8.218 18.635 17.533 25.166 29.478h.001c9.169 16.776 8.859 36.244-.834 52.078zM333.741 419.882a180.023 180.023 0 0 1-62.239 16.847l.19 75.172c35.184-2.107 69.02-11.283 99.847-26.87l-37.798-65.149z" fill="#f1f1f1" opacity="1" data-original="#000000" class=""></path><path d="M300.996 259.263c-4.239-7.752-11.942-15.001-19.393-22.011-1.512-1.423-3.011-2.833-4.473-4.238-5.123-4.92-10.394-9.737-15.491-14.398-1.854-1.695-3.731-3.41-5.62-5.15-1.89 1.739-3.767 3.454-5.62 5.15-5.097 4.659-10.367 9.478-15.49 14.398a636.67 636.67 0 0 1-4.472 4.236c-7.451 7.011-15.155 14.26-19.396 22.014-4.063 7.431-4.029 15.233.094 21.97 4.141 6.763 9.337 9.937 16.353 9.99 4.486.037 8.939-1.281 12.933-3.8l15.598-9.772 15.56 9.747c4.03 2.543 8.494 3.858 12.972 3.824 7.015-.052 12.211-3.227 16.352-9.99 4.124-6.735 4.157-14.538.093-21.97zM241.453 436.81a180.011 180.011 0 0 1-62.323-16.539l-37.467 65.339c30.895 15.423 64.773 24.437 99.98 26.37l-.19-75.17zM271.043.02v75.171a179.998 179.998 0 0 1 62.281 16.694l37.635-65.248C340.098 11.131 306.24 2.04 271.043.02zM26.247 141.917C10.866 172.827 1.89 206.715 0 241.928l75.169-.285A180.005 180.005 0 0 1 91.631 179.3l-65.384-37.383zM113.993 42.408c-13.973 9.334-27.13 20.114-39.282 32.264a258.75 258.75 0 0 0-33.504 41.186l65.379 37.38a182.925 182.925 0 0 1 45.371-45.775l-37.964-65.055zM107.372 359.855l-65.102 37.88a258.902 258.902 0 0 0 32.442 39.554 258.789 258.789 0 0 0 40.913 33.327l37.464-65.334a182.916 182.916 0 0 1-45.717-45.427zM405.191 359.101a182.932 182.932 0 0 1-45.485 45.659l37.797 65.148a258.848 258.848 0 0 0 39.825-32.619 258.88 258.88 0 0 0 33.151-40.642l-65.288-37.546zM139.924 27.228l37.958 65.045a180.017 180.017 0 0 1 63.113-17.082V.02c-35.636 2.045-69.9 11.347-101.071 27.208zM485.221 140.749l-65.202 37.718a180.026 180.026 0 0 1 16.77 62.261l75.171-.095c-2.063-35.19-11.194-69.04-26.739-99.884zM436.83 270.775a180.018 180.018 0 0 1-16.616 62.302l65.294 37.55C500.97 339.75 510.023 305.882 512 270.68l-75.17.095zM437.328 74.672a258.923 258.923 0 0 0-40.37-32.974l-37.63 65.241a182.94 182.94 0 0 1 45.602 45.544l65.195-37.713a258.94 258.94 0 0 0-32.797-40.098z" fill="#f1f1f1" opacity="1" data-original="#000000" class=""></path></g></svg>