<svg xmlns="http://www.w3.org/2000/svg" version="1.1" xmlns:xlink="http://www.w3.org/1999/xlink" width="512" height="512" x="0" y="0" viewBox="0 0 48 48" style="enable-background:new 0 0 512 512" xml:space="preserve" class=""><g><path fill-rule="evenodd" d="M15.517 38.15a2.5 2.5 0 0 0-1.08-4.783l-5.495.133a2.5 2.5 0 0 0-2.438 2.563l.12 5a2.5 2.5 0 0 0 4.943.475A21.498 21.498 0 1 0 2.5 24a2.5 2.5 0 0 0 5 0 16.505 16.505 0 1 1 8.017 14.15zM21.5 14.5V24a2.502 2.502 0 0 0 2.5 2.5h10.058a2.5 2.5 0 1 0 0-5H26.5v-7a2.5 2.5 0 0 0-5 0z" fill="#f1f1f1" opacity="1" data-original="#000000" class=""></path></g></svg>