<svg xmlns="http://www.w3.org/2000/svg" version="1.1" xmlns:xlink="http://www.w3.org/1999/xlink" width="512" height="512" x="0" y="0" viewBox="0 0 511.106 511.106" style="enable-background:new 0 0 512 512" xml:space="preserve"><g><path d="M426.631 174.102a188.02 188.02 0 0 1 17.827 66.451h66.648c-2.019-35.176-11.111-69.016-26.621-99.854zM99.717 147.868a191.061 191.061 0 0 1 48.431-48.345l-33.4-57.851a258.46 258.46 0 0 0-40.215 32.862 258.81 258.81 0 0 0-30.25 36.353zM148.149 411.583a191.058 191.058 0 0 1-48.626-48.626l-57.851 33.4a258.46 258.46 0 0 0 32.862 40.215 258.528 258.528 0 0 0 40.215 32.862zM411.583 362.958a191.038 191.038 0 0 1-48.626 48.625l33.401 57.851c14.32-9.469 27.796-20.443 40.214-32.861s23.392-25.895 32.862-40.215zM84.475 337.004a188.02 188.02 0 0 1-17.827-66.451H0c2.019 35.176 11.111 69.016 26.621 99.854zM337.004 426.63a188.026 188.026 0 0 1-66.451 17.827v66.648c35.177-2.019 69.016-11.112 99.854-26.621zM444.458 270.553a188.057 188.057 0 0 1-17.827 66.451l57.855 33.402c15.509-30.838 24.601-64.677 26.62-99.854h-66.648zM240.553 444.458a188.063 188.063 0 0 1-66.451-17.827l-33.403 57.855c30.838 15.509 64.677 24.601 99.854 26.621zM270.553 66.648a188.063 188.063 0 0 1 66.451 17.827l33.403-57.855C339.569 11.112 305.729 2.019 270.553 0zM362.957 99.523a191.042 191.042 0 0 1 48.626 48.626l57.851-33.4a258.46 258.46 0 0 0-32.862-40.215 258.575 258.575 0 0 0-40.215-32.862zM174.102 84.475a188.063 188.063 0 0 1 66.451-17.827V0c-35.177 2.019-69.016 11.112-99.854 26.621zM66.648 240.553a188.075 188.075 0 0 1 17.948-66.71l-55.845-37.256C11.952 168.52 2.109 203.804 0 240.553zM255.553 96.055c-87.947 0-159.498 71.55-159.498 159.498s71.551 159.498 159.498 159.498 159.498-71.55 159.498-159.498S343.5 96.055 255.553 96.055zm59.615 159.498c0 10.793-2.857 21.144-8.199 30.203l34.785 34.785c5.858 5.857 5.858 15.355 0 21.213-2.929 2.929-6.768 4.394-10.606 4.394s-7.678-1.464-10.606-4.394l-34.785-34.785c-9.059 5.342-19.41 8.2-30.203 8.2s-21.145-2.857-30.203-8.2l-34.785 34.785a14.955 14.955 0 0 1-10.606 4.394 14.946 14.946 0 0 1-10.606-4.394c-5.858-5.858-5.858-15.355 0-21.213l34.785-34.785c-5.342-9.059-8.199-19.41-8.199-30.203s2.857-21.144 8.199-30.203l-34.785-34.785c-5.858-5.857-5.858-15.355 0-21.213 5.857-5.858 15.355-5.858 21.213 0l34.785 34.785c9.059-5.342 19.41-8.2 30.203-8.2s21.145 2.857 30.203 8.2l34.785-34.785c5.857-5.858 15.355-5.857 21.213 0 5.858 5.858 5.858 15.355 0 21.213l-34.785 34.785c5.34 9.059 8.197 19.41 8.197 30.203z" fill="#f1f1f1" opacity="1" data-original="#000000"></path><path d="M255.553 225.951c-7.584 0-15.168 2.887-20.941 8.66-5.594 5.594-8.674 13.031-8.674 20.941s3.08 15.348 8.674 20.941c11.547 11.547 30.336 11.547 41.883 0 5.594-5.594 8.674-13.031 8.674-20.941s-3.08-15.348-8.674-20.941c-5.774-5.773-13.358-8.66-20.942-8.66z" fill="#f1f1f1" opacity="1" data-original="#000000"></path></g></svg>