<svg xmlns="http://www.w3.org/2000/svg" version="1.1" xmlns:xlink="http://www.w3.org/1999/xlink" width="512" height="512" x="0" y="0" viewBox="0 0 512 512" style="enable-background:new 0 0 512 512" xml:space="preserve" class=""><g><path d="M211 301h90v-90h-90zm45-60c8.284 0 15 6.716 15 15s-6.716 15-15 15-15-6.716-15-15 6.716-15 15-15zM211 331h90v90h-90zM91 181h90V91H91zm45-60c8.284 0 15 6.716 15 15s-6.716 15-15 15-15-6.716-15-15 6.716-15 15-15zM91 211h90v90H91zM211 91h90v90h-90zM91 421h90v-90H91zm45-60c8.284 0 15 6.716 15 15s-6.716 15-15 15-15-6.716-15-15 6.716-15 15-15zM331 211h90v90h-90z" fill="#f1f1f1" opacity="1" data-original="#000000" class=""></path><path d="M457 0H55C24.673 0 0 24.673 0 55v402c0 30.327 24.673 55 55 55h402c30.327 0 55-24.673 55-55V55c0-30.327-24.673-55-55-55zm-6 436c0 8.284-6.716 15-15 15H76c-8.284 0-15-6.716-15-15V76c0-8.284 6.716-15 15-15h360c8.284 0 15 6.716 15 15z" fill="#f1f1f1" opacity="1" data-original="#000000" class=""></path><path d="M331 181h90V91h-90zm45-60c8.284 0 15 6.716 15 15s-6.716 15-15 15-15-6.716-15-15 6.716-15 15-15zM331 421h90v-90h-90zm45-60c8.284 0 15 6.716 15 15s-6.716 15-15 15-15-6.716-15-15 6.716-15 15-15z" fill="#f1f1f1" opacity="1" data-original="#000000" class=""></path></g></svg>