<svg xmlns="http://www.w3.org/2000/svg" version="1.1" xmlns:xlink="http://www.w3.org/1999/xlink" width="512" height="512" x="0" y="0" viewBox="0 0 330.001 330.001" style="enable-background:new 0 0 512 512" xml:space="preserve"><g><path d="M37.722 330.001h254.557c8.284 0 15-6.716 15-15v-300a15 15 0 0 0-25.607-10.606l-31.819 31.819-31.819-31.82a14.999 14.999 0 0 0-21.213 0L165 36.214l-31.82-31.82a15 15 0 0 0-21.212 0l-31.82 31.82-31.819-31.82A15 15 0 0 0 22.722 15v300c0 8.285 6.716 15.001 15 15.001zm60-220h74.557c8.284 0 15 6.716 15 15s-6.716 15-15 15H97.722c-8.284 0-15-6.716-15-15s6.716-15 15-15zm0 60h74.557c8.284 0 15 6.716 15 15 0 8.284-6.716 15-15 15H97.722c-8.284 0-15-6.716-15-15 0-8.284 6.716-15 15-15zm0 60h134.557c8.284 0 15 6.716 15 15 0 8.284-6.716 15-15 15H97.722c-8.284 0-15-6.716-15-15 0-8.284 6.716-15 15-15z" fill="#f1f1f1" opacity="1" data-original="#000000"></path></g></svg>