<svg xmlns="http://www.w3.org/2000/svg" version="1.1" xmlns:xlink="http://www.w3.org/1999/xlink" width="512" height="512" x="0" y="0" viewBox="0 0 512.009 512.009" style="enable-background:new 0 0 512 512" xml:space="preserve" class=""><g><path d="m319.262 336.596-17.369-9.094c-9.66-5.058-16.158-14.133-17.829-24.898-1.684-10.849 1.797-21.56 9.549-29.389 9.869-9.966 15.304-23.178 15.304-37.202v-22.511c0-29.176-23.736-52.912-52.912-52.912s-52.913 23.736-52.913 52.912v22.511c0 14.023 5.435 27.235 15.305 37.202 7.752 7.829 11.232 18.542 9.548 29.39-1.671 10.765-8.17 19.839-17.83 24.897l-17.368 9.094c-21.198 11.099-35.88 30.927-40.379 54.002 28.705 22.154 64.656 35.355 103.637 35.355 38.982 0 74.934-13.202 103.639-35.357-4.491-23.068-19.174-42.895-40.382-54z" fill="#ffffff" opacity="1" data-original="#000000" class=""></path><path d="M256.004 86.055c-93.71 0-169.949 76.239-169.949 169.949 0 42.622 15.775 81.627 41.788 111.491 9.201-24.445 27.104-44.971 50.987-57.476l17.369-9.094c1.482-.776 1.96-2.017 2.101-2.922.123-.79.127-2.318-1.221-3.679-15.468-15.621-23.987-36.329-23.987-58.311v-22.511c0-45.718 37.194-82.912 82.913-82.912 45.718 0 82.912 37.194 82.912 82.912v22.511c0 21.982-8.519 42.69-23.987 58.311a4.21 4.21 0 0 0-1.221 3.679c.141.905.619 2.146 2.101 2.922l17.369 9.094c23.89 12.509 41.794 33.032 50.991 57.471 26.011-29.864 41.784-68.866 41.784-111.486 0-93.71-76.24-169.949-169.95-169.949z" fill="#ffffff" opacity="1" data-original="#000000" class=""></path><path d="M437.027 74.982C388.674 26.629 324.386 0 256.004 0 187.623 0 123.335 26.629 74.982 74.982S0 187.623 0 256.005s26.629 132.669 74.982 181.022 112.641 74.982 181.022 74.982c68.382 0 132.67-26.629 181.022-74.982 48.354-48.353 74.982-112.641 74.982-181.022s-26.628-132.67-74.981-181.023zM256.004 455.954c-110.252 0-199.949-89.697-199.949-199.949s89.697-199.95 199.949-199.95 199.949 89.697 199.949 199.949-89.697 199.95-199.949 199.95z" fill="#ffffff" opacity="1" data-original="#000000" class=""></path></g></svg>