<svg xmlns="http://www.w3.org/2000/svg" version="1.1" xmlns:xlink="http://www.w3.org/1999/xlink" width="512" height="512" x="0" y="0" viewBox="0 0 64 64" style="enable-background:new 0 0 512 512" xml:space="preserve"><g><path d="M31.43 17.961a5.735 5.735 0 0 1 11.124 0h6.15l-9.94-9.305a2.003 2.003 0 0 0-2.704-.043l-10.608 9.348zM22.19 17.961l6.784-5.966-5.245-2.208a2.034 2.034 0 0 0-2.574.937l-3.704 7.237c1.183-.002 3.558.002 4.738 0zM42.177 31.38c-8.684.323-8.692 12.79 0 13.116H60V31.358c-.254.004-17.81.037-17.823.021zm.312 10.273a3.716 3.716 0 0 1 0-7.43 3.716 3.716 0 0 1 0 7.43z" fill="#f1f1f1" opacity="1" data-original="#000000"></path><path d="M42.49 36.376a1.562 1.562 0 0 0 0 3.123 1.562 1.562 0 0 0 0-3.123zM33.68 17.961h6.623a3.58 3.58 0 0 0-6.623 0zM19.788 35.472C19.35 25 4.435 25.003 4 35.472a7.894 7.894 0 1 0 15.788 0zm-8.853 4.674v-.41c-1.125-.303-2.598-2.516-.937-3.08a.95.95 0 0 1 1.131.733.78.78 0 1 0 .765-.937 2.689 2.689 0 0 1-.959-5.19c-.274-1.872 2.172-1.904 1.906-.012 1.093.316 2.541 2.346.98 2.973a.974.974 0 0 1-1.184-.668.763.763 0 0 0-.743-.56.775.775 0 0 0 0 1.55 2.695 2.695 0 0 1 .947 5.202v.399a.953.953 0 0 1-1.906 0z" fill="#f1f1f1" opacity="1" data-original="#000000"></path><path d="M42.177 46.65a8.712 8.712 0 1 1 0-17.424c1.31-.003 15.321.001 16.197 0v-4.308a4.812 4.812 0 0 0-4.76-4.803H15.512a4.884 4.884 0 0 0-4.814 5.385 10.044 10.044 0 1 1 0 19.944v5.632a4.826 4.826 0 0 0 4.814 4.814h38.059a4.826 4.826 0 0 0 4.814-4.814V46.65c-.822.011-14.913-.008-16.208 0z" fill="#f1f1f1" opacity="1" data-original="#000000"></path></g></svg>